<?xml version="1.0" encoding="UTF-8" standalone="no"?>
<!-- Created with Inkscape (http://www.inkscape.org/) -->

<svg
   width="16.299999mm"
   height="16.299999mm"
   viewBox="0 0 16.299999 16.299999"
   version="1.1"
   id="svg1"
   inkscape:version="1.4.3 (0d15f75, 2025-12-25)"
   sodipodi:docname="button_2.svg"
   xmlns:inkscape="http://www.inkscape.org/namespaces/inkscape"
   xmlns:sodipodi="http://sodipodi.sourceforge.net/DTD/sodipodi-0.dtd"
   xmlns="http://www.w3.org/2000/svg"
   xmlns:svg="http://www.w3.org/2000/svg">
  <sodipodi:namedview
     id="namedview1"
     pagecolor="#ffffff"
     bordercolor="#111111"
     borderopacity="1"
     inkscape:showpageshadow="0"
     inkscape:pageopacity="0"
     inkscape:pagecheckerboard="1"
     inkscape:deskcolor="#d1d1d1"
     inkscape:document-units="mm"
     inkscape:zoom="6.064927"
     inkscape:cx="34.955079"
     inkscape:cy="18.714158"
     inkscape:window-width="1920"
     inkscape:window-height="1111"
     inkscape:window-x="2391"
     inkscape:window-y="1791"
     inkscape:window-maximized="1"
     inkscape:current-layer="layer1" />
  <defs
     id="defs1" />
  <g
     inkscape:label="Warstwa 1"
     inkscape:groupmode="layer"
     id="layer1"
     transform="translate(-96.837503,-140.22917)">
    <rect
       style="fill:#ffde71;fill-opacity:1;stroke:#000000;stroke-width:0.3;stroke-linejoin:round;stroke-dasharray:none;stroke-dashoffset:0"
       id="rect4"
       width="16"
       height="16"
       x="96.987503"
       y="140.37917" />
    <path
       sodipodi:type="star"
       style="fill:#1a1a1a;stroke:#000000;stroke-width:0.2;stroke-linejoin:round;stroke-dasharray:none"
       id="path1"
       inkscape:flatsided="false"
       sodipodi:sides="16"
       sodipodi:cx="100.19664"
       sodipodi:cy="143.76282"
       sodipodi:r1="7.9173956"
       sodipodi:r2="9.6553602"
       sodipodi:arg1="0.78220329"
       sodipodi:arg2="0.97855283"
       inkscape:rounded="0.35"
       inkscape:randomized="0"
       d="m 105.81294,149.34335 c -0.60217,0.60603 0.48239,1.95352 -0.22645,2.43043 -0.70883,0.47691 -1.54839,-1.03542 -2.33664,-0.70596 -0.78825,0.32946 -0.30191,1.98942 -1.1393,2.15877 -0.83738,0.16934 -1.03428,-1.54915 -1.88861,-1.54642 -0.854336,0.003 -1.040255,1.72245 -1.878703,1.55845 -0.838447,-0.16399 -0.362725,-1.82702 -1.153068,-2.15144 -0.790343,-0.32442 -1.620217,1.19324 -2.332083,0.72087 -0.711867,-0.47237 0.364058,-1.82676 -0.241975,-2.42893 -0.606033,-0.60217 -1.95352,0.48238 -2.430431,-0.22645 -0.47691,-0.70883 1.035417,-1.54839 0.705958,-2.33664 -0.32946,-0.78826 -1.989418,-0.30192 -2.158767,-1.1393 -0.169348,-0.83738 1.549143,-1.03429 1.546414,-1.88862 -0.0027,-0.85433 -1.722444,-1.04025 -1.55845,-1.8787 0.163995,-0.83844 1.827026,-0.36272 2.151443,-1.15306 0.324416,-0.79035 -1.193245,-1.62022 -0.720874,-2.33209 0.472372,-0.71186 1.826761,0.36406 2.428934,-0.24197 0.602173,-0.60603 -0.482384,-1.95352 0.22645,-2.43043 0.708833,-0.47691 1.548388,1.03541 2.336642,0.70595 0.788254,-0.32945 0.301915,-1.98941 1.139297,-2.15876 0.837383,-0.16935 1.034287,1.54914 1.888613,1.54641 0.85434,-0.003 1.04026,-1.72244 1.8787,-1.55845 0.83845,0.164 0.36273,1.82703 1.15307,2.15144 0.79034,0.32442 1.62022,-1.19324 2.33208,-0.72087 0.71187,0.47237 -0.36405,1.82676 0.24198,2.42894 0.60603,0.60217 1.95352,-0.48239 2.43043,0.22645 0.47691,0.70883 -1.03542,1.54838 -0.70596,2.33664 0.32946,0.78825 1.98942,0.30191 2.15877,1.13929 0.16935,0.83739 -1.54914,1.03429 -1.54641,1.88862 0.003,0.85433 1.72244,1.04025 1.55844,1.8787 -0.16399,0.83845 -1.82702,0.36273 -2.15144,1.15307 -0.32441,0.79034 1.19325,1.62022 0.72088,2.33208 -0.47238,0.71187 -1.82677,-0.36406 -2.42894,0.24198 z"
       transform="matrix(0.66952547,0,0,0.66952547,37.903301,52.126298)" />
    <path
       sodipodi:type="star"
       style="fill:#ffde71;stroke:#000000;stroke-width:0.2;stroke-linejoin:round;stroke-dasharray:none;fill-opacity:1"
       id="path1-8"
       inkscape:flatsided="false"
       sodipodi:sides="16"
       sodipodi:cx="100.19664"
       sodipodi:cy="143.76282"
       sodipodi:r1="7.9173956"
       sodipodi:r2="9.6553602"
       sodipodi:arg1="0.78220329"
       sodipodi:arg2="0.97855283"
       inkscape:rounded="0.35"
       inkscape:randomized="0"
       d="m 105.81294,149.34335 c -0.60217,0.60603 0.48239,1.95352 -0.22645,2.43043 -0.70883,0.47691 -1.54839,-1.03542 -2.33664,-0.70596 -0.78825,0.32946 -0.30191,1.98942 -1.1393,2.15877 -0.83738,0.16934 -1.03428,-1.54915 -1.88861,-1.54642 -0.854336,0.003 -1.040255,1.72245 -1.878703,1.55845 -0.838447,-0.16399 -0.362725,-1.82702 -1.153068,-2.15144 -0.790343,-0.32442 -1.620217,1.19324 -2.332083,0.72087 -0.711867,-0.47237 0.364058,-1.82676 -0.241975,-2.42893 -0.606033,-0.60217 -1.95352,0.48238 -2.430431,-0.22645 -0.47691,-0.70883 1.035417,-1.54839 0.705958,-2.33664 -0.32946,-0.78826 -1.989418,-0.30192 -2.158767,-1.1393 -0.169348,-0.83738 1.549143,-1.03429 1.546414,-1.88862 -0.0027,-0.85433 -1.722444,-1.04025 -1.55845,-1.8787 0.163995,-0.83844 1.827026,-0.36272 2.151443,-1.15306 0.324416,-0.79035 -1.193245,-1.62022 -0.720874,-2.33209 0.472372,-0.71186 1.826761,0.36406 2.428934,-0.24197 0.602173,-0.60603 -0.482384,-1.95352 0.22645,-2.43043 0.708833,-0.47691 1.548388,1.03541 2.336642,0.70595 0.788254,-0.32945 0.301915,-1.98941 1.139297,-2.15876 0.837383,-0.16935 1.034287,1.54914 1.888613,1.54641 0.85434,-0.003 1.04026,-1.72244 1.8787,-1.55845 0.83845,0.164 0.36273,1.82703 1.15307,2.15144 0.79034,0.32442 1.62022,-1.19324 2.33208,-0.72087 0.71187,0.47237 -0.36405,1.82676 0.24198,2.42894 0.60603,0.60217 1.95352,-0.48239 2.43043,0.22645 0.47691,0.70883 -1.03542,1.54838 -0.70596,2.33664 0.32946,0.78825 1.98942,0.30191 2.15877,1.13929 0.16935,0.83739 -1.54914,1.03429 -1.54641,1.88862 0.003,0.85433 1.72244,1.04025 1.55844,1.8787 -0.16399,0.83845 -1.82702,0.36273 -2.15144,1.15307 -0.32441,0.79034 1.19325,1.62022 0.72088,2.33208 -0.47238,0.71187 -1.82677,-0.36406 -2.42894,0.24198 z"
       transform="matrix(0.52271308,0,0,0.52271308,52.613408,73.232465)" />
    <circle
       style="fill:#1a1a1a;fill-opacity:1;stroke:#000000;stroke-width:0.2;stroke-linejoin:round;stroke-dasharray:none"
       id="path2"
       cx="104.9875"
       cy="148.37917"
       r="1.5" />
  </g>
</svg>
