<?xml version="1.0" encoding="UTF-8" standalone="no"?>
<!-- Generator: Adobe Illustrator 16.0.0, SVG Export Plug-In . SVG Version: 6.00 Build 0)  -->

<svg
   version="1.1"
   id="Layer_1"
   x="0px"
   y="0px"
   width="150"
   height="33.734028"
   viewBox="0 0 150 33.734023"
   enable-background="new 0 0 420.479 94.563"
   xml:space="preserve"
   sodipodi:docname="logo.svg"
   inkscape:version="1.4.2 (f4327f4, 2025-05-13)"
   xmlns:inkscape="http://www.inkscape.org/namespaces/inkscape"
   xmlns:sodipodi="http://sodipodi.sourceforge.net/DTD/sodipodi-0.dtd"
   xmlns="http://www.w3.org/2000/svg"
   xmlns:svg="http://www.w3.org/2000/svg"><defs
   id="defs7" /><sodipodi:namedview
   id="namedview7"
   pagecolor="#ffffff"
   bordercolor="#111111"
   borderopacity="1"
   inkscape:showpageshadow="0"
   inkscape:pageopacity="0"
   inkscape:pagecheckerboard="1"
   inkscape:deskcolor="#d1d1d1"
   inkscape:zoom="1.4638934"
   inkscape:cx="122.95977"
   inkscape:cy="76.166746"
   inkscape:window-width="1920"
   inkscape:window-height="1111"
   inkscape:window-x="2391"
   inkscape:window-y="1791"
   inkscape:window-maximized="1"
   inkscape:current-layer="Layer_1" />
<g
   id="g7"
   transform="scale(0.35673771)">
	<path
   fill="#ffc60b"
   d="M 0,94.563 94.563,0 v 85.193 c 0,0.001 -21.487,-37.912 -94.563,9.37"
   id="path1" />
	<g
   id="g6">
		<path
   d="m 166.694,17.909 c 4.455,2.822 7.924,6.955 10.408,12.396 2.48,5.444 3.722,12.04 3.722,19.794 0,7.618 -1.241,14.148 -3.722,19.589 -2.484,5.442 -5.953,9.59 -10.408,12.446 -4.455,2.857 -9.642,4.285 -15.558,4.285 -5.918,0 -11.105,-1.394 -15.559,-4.183 -4.457,-2.787 -7.925,-6.902 -10.407,-12.346 -2.483,-5.439 -3.724,-12.004 -3.724,-19.689 0,-7.552 1.24,-14.081 3.724,-19.591 2.482,-5.509 5.969,-9.709 10.458,-12.599 4.489,-2.891 9.657,-4.337 15.508,-4.337 5.917,0.002 11.103,1.414 15.558,4.235 z m -29.84,10.661 c -3.403,4.629 -5.102,11.835 -5.102,21.632 0,9.727 1.717,16.866 5.151,21.425 3.434,4.558 8.18,6.836 14.233,6.836 12.922,0 19.384,-9.454 19.384,-28.363 0,-18.978 -6.462,-28.466 -19.384,-28.466 -6.122,-0.001 -10.884,2.312 -14.282,6.936 z"
   id="path2" />
		<path
   d="m 232.907,34.59 c 2.754,2.926 4.133,6.938 4.133,12.04 v 38.563 h -9.389 V 47.955 c 0,-3.809 -0.713,-6.494 -2.142,-8.06 -1.429,-1.564 -3.538,-2.347 -6.325,-2.347 -2.856,0 -5.373,0.816 -7.55,2.448 -2.179,1.633 -4.219,3.979 -6.122,7.039 v 38.156 h -9.387 V 31.429 h 8.061 l 0.816,7.957 c 1.902,-2.856 4.268,-5.102 7.092,-6.733 2.819,-1.633 5.932,-2.448 9.334,-2.448 4.899,-0.002 8.725,1.462 11.479,4.385 z"
   id="path3" />
		<path
   d="m 293.815,15.562 c 3.229,1.262 6.443,3.215 9.642,5.868 l -5.713,5.917 c -2.519,-2.039 -4.933,-3.502 -7.244,-4.387 -2.313,-0.882 -5.035,-1.327 -8.162,-1.327 -3.604,0 -6.922,0.97 -9.948,2.908 -3.025,1.938 -5.492,5.035 -7.396,9.285 -1.905,4.25 -2.854,9.641 -2.854,16.171 0,9.862 1.614,17.07 4.846,21.629 3.23,4.558 8.01,6.836 14.334,6.836 5.236,0 9.693,-1.087 13.365,-3.267 V 54.076 h -12.447 l -1.122,-7.854 h 23.16 v 33.974 c -3.401,2.042 -7.023,3.59 -10.866,4.644 -3.844,1.054 -8.11,1.581 -12.805,1.581 -8.91,0 -15.934,-3.095 -21.067,-9.283 -5.138,-6.188 -7.702,-15.236 -7.702,-27.139 0,-7.617 1.395,-14.165 4.184,-19.642 2.787,-5.475 6.494,-9.624 11.121,-12.446 4.625,-2.821 9.623,-4.233 14.996,-4.233 4.553,-0.002 8.447,0.627 11.678,1.884 z"
   id="path4" />
		<path
   d="m 360.693,61.524 h -34.28 c 0.408,5.918 1.903,10.272 4.489,13.062 2.584,2.79 5.917,4.182 9.999,4.182 2.583,0 4.964,-0.371 7.141,-1.122 2.176,-0.746 4.455,-1.938 6.836,-3.568 l 4.081,5.609 c -5.714,4.489 -11.972,6.733 -18.771,6.733 -7.483,0 -13.313,-2.448 -17.497,-7.345 -4.184,-4.897 -6.274,-11.633 -6.274,-20.202 0,-5.576 0.9,-10.524 2.704,-14.846 1.801,-4.317 4.387,-7.701 7.754,-10.149 3.367,-2.448 7.327,-3.674 11.885,-3.674 7.144,0 12.616,2.348 16.426,7.041 3.811,4.691 5.715,11.188 5.715,19.485 -0.004,1.565 -0.072,3.163 -0.208,4.794 z m -9.081,-7.549 c 0,-5.304 -1.056,-9.351 -3.161,-12.141 -2.109,-2.787 -5.272,-4.184 -9.489,-4.184 -7.687,0 -11.869,5.646 -12.549,16.938 h 25.199 z"
   id="path5" />
		<path
   d="m 414.204,37.753 c 4.183,5.035 6.273,11.87 6.273,20.507 0,5.578 -0.953,10.493 -2.855,14.743 -1.906,4.252 -4.66,7.55 -8.265,9.896 -3.605,2.348 -7.892,3.521 -12.854,3.521 -7.55,0 -13.434,-2.517 -17.651,-7.549 -4.217,-5.033 -6.323,-11.869 -6.323,-20.51 0,-5.574 0.952,-10.488 2.855,-14.74 1.904,-4.251 4.658,-7.551 8.265,-9.896 3.604,-2.347 7.924,-3.521 12.957,-3.521 7.548,-0.001 13.415,2.517 17.598,7.549 z m -31.577,20.608 c 0,13.674 4.625,20.51 13.876,20.51 9.249,0 13.874,-6.869 13.874,-20.61 0,-13.671 -4.59,-20.507 -13.771,-20.507 -9.321,-10e-4 -13.979,6.87 -13.979,20.607 z"
   id="path6" />
	</g>
</g>
</svg>
